<mxfile host="app.diagrams.net" modified="2023-07-10T16:31:32.094Z" agent="Mozilla/5.0 (Windows NT 10.0; Win64; x64) AppleWebKit/537.36 (KHTML, like Gecko) Chrome/114.0.0.0 Safari/537.36 Edg/114.0.1823.67" etag="X73odAWIY7e_S5WmD1bN" version="21.6.1" type="github">
  <diagram name="Page-1" id="3GMCaoutJsqQsDqICPwn">
    <mxGraphModel dx="2936" dy="2773" grid="1" gridSize="10" guides="1" tooltips="1" connect="1" arrows="1" fold="1" page="1" pageScale="1" pageWidth="850" pageHeight="1100" math="0" shadow="0">
      <root>
        <mxCell id="0" />
        <mxCell id="1" parent="0" />
        <mxCell id="UuIxYVkr14JvkqVsrURw-33" style="edgeStyle=orthogonalEdgeStyle;rounded=0;orthogonalLoop=1;jettySize=auto;html=1;" parent="1" source="UuIxYVkr14JvkqVsrURw-1" target="UuIxYVkr14JvkqVsrURw-3" edge="1">
          <mxGeometry relative="1" as="geometry" />
        </mxCell>
        <mxCell id="UuIxYVkr14JvkqVsrURw-36" style="edgeStyle=orthogonalEdgeStyle;rounded=0;orthogonalLoop=1;jettySize=auto;html=1;" parent="1" source="UuIxYVkr14JvkqVsrURw-1" target="UuIxYVkr14JvkqVsrURw-2" edge="1">
          <mxGeometry relative="1" as="geometry" />
        </mxCell>
        <mxCell id="IUQ1ileT8ZM5fcZU5scy-73" style="edgeStyle=orthogonalEdgeStyle;rounded=0;orthogonalLoop=1;jettySize=auto;html=1;entryX=0.5;entryY=0;entryDx=0;entryDy=0;" edge="1" parent="1" source="UuIxYVkr14JvkqVsrURw-1" target="UuIxYVkr14JvkqVsrURw-4">
          <mxGeometry relative="1" as="geometry" />
        </mxCell>
        <mxCell id="UuIxYVkr14JvkqVsrURw-1" value="&lt;font style=&quot;font-size: 36px;&quot;&gt;&lt;b&gt;DOM&lt;/b&gt;&lt;/font&gt;" style="rounded=0;whiteSpace=wrap;html=1;" parent="1" vertex="1">
          <mxGeometry x="-1250.1399999999999" y="-2060" width="190" height="90" as="geometry" />
        </mxCell>
        <mxCell id="UuIxYVkr14JvkqVsrURw-37" style="edgeStyle=orthogonalEdgeStyle;rounded=0;orthogonalLoop=1;jettySize=auto;html=1;" parent="1" source="UuIxYVkr14JvkqVsrURw-2" target="UuIxYVkr14JvkqVsrURw-9" edge="1">
          <mxGeometry relative="1" as="geometry" />
        </mxCell>
        <mxCell id="IUQ1ileT8ZM5fcZU5scy-74" style="edgeStyle=orthogonalEdgeStyle;rounded=0;orthogonalLoop=1;jettySize=auto;html=1;entryX=0;entryY=0.5;entryDx=0;entryDy=0;" edge="1" parent="1" source="UuIxYVkr14JvkqVsrURw-2" target="UuIxYVkr14JvkqVsrURw-8">
          <mxGeometry relative="1" as="geometry" />
        </mxCell>
        <mxCell id="UuIxYVkr14JvkqVsrURw-2" value="&lt;font style=&quot;font-size: 24px;&quot;&gt;&lt;b&gt;HEADER&lt;/b&gt;&lt;/font&gt;" style="rounded=0;whiteSpace=wrap;html=1;" parent="1" vertex="1">
          <mxGeometry x="-882.0099999999999" y="-2010" width="160" height="80" as="geometry" />
        </mxCell>
        <mxCell id="UuIxYVkr14JvkqVsrURw-56" style="edgeStyle=orthogonalEdgeStyle;rounded=0;orthogonalLoop=1;jettySize=auto;html=1;entryX=0;entryY=0.5;entryDx=0;entryDy=0;" parent="1" source="UuIxYVkr14JvkqVsrURw-3" target="UuIxYVkr14JvkqVsrURw-57" edge="1">
          <mxGeometry relative="1" as="geometry">
            <mxPoint x="-885.14" y="-2015" as="targetPoint" />
          </mxGeometry>
        </mxCell>
        <mxCell id="UuIxYVkr14JvkqVsrURw-3" value="&lt;font style=&quot;font-size: 24px;&quot;&gt;&lt;b&gt;FOOTER&lt;/b&gt;&lt;/font&gt;" style="rounded=0;whiteSpace=wrap;html=1;" parent="1" vertex="1">
          <mxGeometry x="-1290.1399999999999" y="-1895" width="160" height="80" as="geometry" />
        </mxCell>
        <mxCell id="UuIxYVkr14JvkqVsrURw-20" style="edgeStyle=orthogonalEdgeStyle;rounded=0;orthogonalLoop=1;jettySize=auto;html=1;" parent="1" source="UuIxYVkr14JvkqVsrURw-4" target="IUQ1ileT8ZM5fcZU5scy-51" edge="1">
          <mxGeometry relative="1" as="geometry">
            <mxPoint x="-215.14" y="-1765" as="targetPoint" />
          </mxGeometry>
        </mxCell>
        <mxCell id="UuIxYVkr14JvkqVsrURw-4" value="&lt;font style=&quot;font-size: 24px;&quot;&gt;&lt;b&gt;MAIN&lt;/b&gt;&lt;/font&gt;" style="rounded=0;whiteSpace=wrap;html=1;" parent="1" vertex="1">
          <mxGeometry x="-1070.1399999999999" y="-1895" width="160" height="80" as="geometry" />
        </mxCell>
        <mxCell id="UuIxYVkr14JvkqVsrURw-40" style="edgeStyle=orthogonalEdgeStyle;rounded=0;orthogonalLoop=1;jettySize=auto;html=1;" parent="1" source="UuIxYVkr14JvkqVsrURw-8" target="UuIxYVkr14JvkqVsrURw-12" edge="1">
          <mxGeometry relative="1" as="geometry" />
        </mxCell>
        <mxCell id="UuIxYVkr14JvkqVsrURw-8" value="NAVIGATION" style="shape=process;whiteSpace=wrap;html=1;backgroundOutline=1;" parent="1" vertex="1">
          <mxGeometry x="-670.76" y="-1835" width="120" height="40" as="geometry" />
        </mxCell>
        <mxCell id="UuIxYVkr14JvkqVsrURw-39" style="edgeStyle=orthogonalEdgeStyle;rounded=0;orthogonalLoop=1;jettySize=auto;html=1;" parent="1" source="UuIxYVkr14JvkqVsrURw-9" target="UuIxYVkr14JvkqVsrURw-17" edge="1">
          <mxGeometry relative="1" as="geometry" />
        </mxCell>
        <mxCell id="UuIxYVkr14JvkqVsrURw-9" value="LOGO" style="shape=process;whiteSpace=wrap;html=1;backgroundOutline=1;" parent="1" vertex="1">
          <mxGeometry x="-670.76" y="-1910" width="120" height="40" as="geometry" />
        </mxCell>
        <mxCell id="UuIxYVkr14JvkqVsrURw-12" value="LI" style="whiteSpace=wrap;html=1;aspect=fixed;" parent="1" vertex="1">
          <mxGeometry x="-520" y="-1835" width="40" height="40" as="geometry" />
        </mxCell>
        <mxCell id="UuIxYVkr14JvkqVsrURw-17" value="IMG" style="whiteSpace=wrap;html=1;aspect=fixed;" parent="1" vertex="1">
          <mxGeometry x="-520" y="-1910" width="40" height="40" as="geometry" />
        </mxCell>
        <mxCell id="IUQ1ileT8ZM5fcZU5scy-46" style="edgeStyle=orthogonalEdgeStyle;rounded=0;orthogonalLoop=1;jettySize=auto;html=1;" edge="1" parent="1" source="UuIxYVkr14JvkqVsrURw-57" target="IUQ1ileT8ZM5fcZU5scy-45">
          <mxGeometry relative="1" as="geometry" />
        </mxCell>
        <mxCell id="IUQ1ileT8ZM5fcZU5scy-48" style="edgeStyle=orthogonalEdgeStyle;rounded=0;orthogonalLoop=1;jettySize=auto;html=1;" edge="1" parent="1" source="UuIxYVkr14JvkqVsrURw-57" target="IUQ1ileT8ZM5fcZU5scy-43">
          <mxGeometry relative="1" as="geometry" />
        </mxCell>
        <mxCell id="IUQ1ileT8ZM5fcZU5scy-49" style="edgeStyle=orthogonalEdgeStyle;rounded=0;orthogonalLoop=1;jettySize=auto;html=1;" edge="1" parent="1" source="UuIxYVkr14JvkqVsrURw-57" target="IUQ1ileT8ZM5fcZU5scy-42">
          <mxGeometry relative="1" as="geometry" />
        </mxCell>
        <mxCell id="IUQ1ileT8ZM5fcZU5scy-72" style="edgeStyle=orthogonalEdgeStyle;rounded=0;orthogonalLoop=1;jettySize=auto;html=1;" edge="1" parent="1" source="UuIxYVkr14JvkqVsrURw-57" target="IUQ1ileT8ZM5fcZU5scy-44">
          <mxGeometry relative="1" as="geometry" />
        </mxCell>
        <mxCell id="UuIxYVkr14JvkqVsrURw-57" value="Soc Links" style="shape=process;whiteSpace=wrap;html=1;backgroundOutline=1;" parent="1" vertex="1">
          <mxGeometry x="-1290.1399999999999" y="-1740" width="110" height="40" as="geometry" />
        </mxCell>
        <mxCell id="IUQ1ileT8ZM5fcZU5scy-42" value="a" style="whiteSpace=wrap;html=1;aspect=fixed;" vertex="1" parent="1">
          <mxGeometry x="-1270.1399999999999" y="-1660" width="40" height="40" as="geometry" />
        </mxCell>
        <mxCell id="IUQ1ileT8ZM5fcZU5scy-43" value="a" style="whiteSpace=wrap;html=1;aspect=fixed;" vertex="1" parent="1">
          <mxGeometry x="-1210.1399999999999" y="-1660" width="40" height="40" as="geometry" />
        </mxCell>
        <mxCell id="IUQ1ileT8ZM5fcZU5scy-44" value="a" style="whiteSpace=wrap;html=1;aspect=fixed;" vertex="1" parent="1">
          <mxGeometry x="-1150.1399999999999" y="-1660" width="40" height="40" as="geometry" />
        </mxCell>
        <mxCell id="IUQ1ileT8ZM5fcZU5scy-45" value="a" style="whiteSpace=wrap;html=1;aspect=fixed;" vertex="1" parent="1">
          <mxGeometry x="-1090.1399999999999" y="-1660" width="40" height="40" as="geometry" />
        </mxCell>
        <mxCell id="IUQ1ileT8ZM5fcZU5scy-50" style="edgeStyle=orthogonalEdgeStyle;rounded=0;orthogonalLoop=1;jettySize=auto;html=1;" edge="1" parent="1" source="IUQ1ileT8ZM5fcZU5scy-51" target="IUQ1ileT8ZM5fcZU5scy-58">
          <mxGeometry relative="1" as="geometry" />
        </mxCell>
        <mxCell id="IUQ1ileT8ZM5fcZU5scy-75" style="edgeStyle=orthogonalEdgeStyle;rounded=0;orthogonalLoop=1;jettySize=auto;html=1;entryX=0.5;entryY=0;entryDx=0;entryDy=0;" edge="1" parent="1" source="IUQ1ileT8ZM5fcZU5scy-51" target="IUQ1ileT8ZM5fcZU5scy-52">
          <mxGeometry relative="1" as="geometry">
            <Array as="points">
              <mxPoint x="-844" y="-1650" />
              <mxPoint x="-960" y="-1650" />
            </Array>
          </mxGeometry>
        </mxCell>
        <mxCell id="IUQ1ileT8ZM5fcZU5scy-51" value="&lt;font style=&quot;font-size: 18px;&quot;&gt;&lt;b&gt;SECTION&lt;/b&gt;&lt;/font&gt;" style="rounded=1;whiteSpace=wrap;html=1;" vertex="1" parent="1">
          <mxGeometry x="-944.5099999999999" y="-1730" width="201.25" height="60" as="geometry" />
        </mxCell>
        <mxCell id="IUQ1ileT8ZM5fcZU5scy-52" value="Section Header" style="rounded=1;whiteSpace=wrap;html=1;" vertex="1" parent="1">
          <mxGeometry x="-1019.9999999999999" y="-1530" width="120" height="60" as="geometry" />
        </mxCell>
        <mxCell id="IUQ1ileT8ZM5fcZU5scy-53" style="edgeStyle=orthogonalEdgeStyle;rounded=0;orthogonalLoop=1;jettySize=auto;html=1;entryX=0.5;entryY=0;entryDx=0;entryDy=0;" edge="1" parent="1" source="IUQ1ileT8ZM5fcZU5scy-55" target="IUQ1ileT8ZM5fcZU5scy-60">
          <mxGeometry relative="1" as="geometry" />
        </mxCell>
        <mxCell id="IUQ1ileT8ZM5fcZU5scy-54" style="edgeStyle=orthogonalEdgeStyle;rounded=0;orthogonalLoop=1;jettySize=auto;html=1;entryX=0.5;entryY=0;entryDx=0;entryDy=0;" edge="1" parent="1" source="IUQ1ileT8ZM5fcZU5scy-55" target="IUQ1ileT8ZM5fcZU5scy-63">
          <mxGeometry relative="1" as="geometry" />
        </mxCell>
        <mxCell id="IUQ1ileT8ZM5fcZU5scy-67" style="edgeStyle=orthogonalEdgeStyle;rounded=0;orthogonalLoop=1;jettySize=auto;html=1;" edge="1" parent="1" source="IUQ1ileT8ZM5fcZU5scy-55" target="IUQ1ileT8ZM5fcZU5scy-68">
          <mxGeometry relative="1" as="geometry">
            <mxPoint x="-610.14" y="-1470" as="targetPoint" />
          </mxGeometry>
        </mxCell>
        <mxCell id="IUQ1ileT8ZM5fcZU5scy-55" value="Section Body" style="rounded=1;whiteSpace=wrap;html=1;glass=0;" vertex="1" parent="1">
          <mxGeometry x="-808.89" y="-1470" width="120" height="60" as="geometry" />
        </mxCell>
        <mxCell id="IUQ1ileT8ZM5fcZU5scy-57" style="edgeStyle=orthogonalEdgeStyle;rounded=0;orthogonalLoop=1;jettySize=auto;html=1;entryX=0.5;entryY=0;entryDx=0;entryDy=0;" edge="1" parent="1" source="IUQ1ileT8ZM5fcZU5scy-58" target="IUQ1ileT8ZM5fcZU5scy-55">
          <mxGeometry relative="1" as="geometry" />
        </mxCell>
        <mxCell id="IUQ1ileT8ZM5fcZU5scy-58" value="&lt;font style=&quot;font-size: 18px;&quot;&gt;Section Wrapper&lt;/font&gt;" style="rounded=1;whiteSpace=wrap;html=1;" vertex="1" parent="1">
          <mxGeometry x="-920" y="-1620" width="170" height="60" as="geometry" />
        </mxCell>
        <mxCell id="IUQ1ileT8ZM5fcZU5scy-88" style="edgeStyle=orthogonalEdgeStyle;rounded=0;orthogonalLoop=1;jettySize=auto;html=1;entryX=0.5;entryY=0;entryDx=0;entryDy=0;" edge="1" parent="1" source="IUQ1ileT8ZM5fcZU5scy-60" target="IUQ1ileT8ZM5fcZU5scy-76">
          <mxGeometry relative="1" as="geometry" />
        </mxCell>
        <mxCell id="IUQ1ileT8ZM5fcZU5scy-60" value="&lt;b style=&quot;border-color: var(--border-color);&quot;&gt;&lt;font style=&quot;font-size: 14px;&quot;&gt;Split Left&lt;/font&gt;&lt;/b&gt;" style="shape=process;whiteSpace=wrap;html=1;backgroundOutline=1;" vertex="1" parent="1">
          <mxGeometry x="-940.14" y="-1370" width="125" height="40" as="geometry" />
        </mxCell>
        <mxCell id="IUQ1ileT8ZM5fcZU5scy-61" style="edgeStyle=orthogonalEdgeStyle;rounded=0;orthogonalLoop=1;jettySize=auto;html=1;entryX=0;entryY=0.5;entryDx=0;entryDy=0;" edge="1" parent="1" source="IUQ1ileT8ZM5fcZU5scy-63" target="IUQ1ileT8ZM5fcZU5scy-65">
          <mxGeometry relative="1" as="geometry" />
        </mxCell>
        <mxCell id="IUQ1ileT8ZM5fcZU5scy-62" style="edgeStyle=orthogonalEdgeStyle;rounded=0;orthogonalLoop=1;jettySize=auto;html=1;entryX=0.5;entryY=0;entryDx=0;entryDy=0;" edge="1" parent="1" source="IUQ1ileT8ZM5fcZU5scy-63" target="IUQ1ileT8ZM5fcZU5scy-76">
          <mxGeometry relative="1" as="geometry">
            <mxPoint x="-714.6099999999997" y="-1279.32" as="targetPoint" />
          </mxGeometry>
        </mxCell>
        <mxCell id="IUQ1ileT8ZM5fcZU5scy-63" value="&lt;b style=&quot;border-color: var(--border-color);&quot;&gt;&lt;font style=&quot;font-size: 14px;&quot;&gt;Split Right&lt;/font&gt;&lt;/b&gt;" style="shape=process;whiteSpace=wrap;html=1;backgroundOutline=1;" vertex="1" parent="1">
          <mxGeometry x="-768.89" y="-1370" width="120" height="40" as="geometry" />
        </mxCell>
        <mxCell id="IUQ1ileT8ZM5fcZU5scy-65" value="Section Header" style="rounded=1;whiteSpace=wrap;html=1;" vertex="1" parent="1">
          <mxGeometry x="-688.89" y="-1290" width="120" height="40" as="geometry" />
        </mxCell>
        <mxCell id="IUQ1ileT8ZM5fcZU5scy-68" value="Content Wrapper" style="rounded=1;whiteSpace=wrap;html=1;glass=0;" vertex="1" parent="1">
          <mxGeometry x="-635.76" y="-1460" width="120" height="40" as="geometry" />
        </mxCell>
        <mxCell id="IUQ1ileT8ZM5fcZU5scy-70" value="" style="curved=1;endArrow=classic;html=1;rounded=0;" edge="1" parent="1" source="IUQ1ileT8ZM5fcZU5scy-71">
          <mxGeometry width="50" height="50" relative="1" as="geometry">
            <mxPoint x="-610.14" y="-1630" as="sourcePoint" />
            <mxPoint x="-700.14" y="-1500" as="targetPoint" />
            <Array as="points">
              <mxPoint x="-610.14" y="-1500" />
              <mxPoint x="-690.14" y="-1600" />
            </Array>
          </mxGeometry>
        </mxCell>
        <mxCell id="IUQ1ileT8ZM5fcZU5scy-71" value="&lt;h1&gt;Variations&lt;/h1&gt;&lt;p&gt;One diagram to show all variations, each part could b emissing but not affect the section layou&lt;/p&gt;" style="text;html=1;strokeColor=none;fillColor=none;spacing=5;spacingTop=-20;whiteSpace=wrap;overflow=hidden;rounded=0;" vertex="1" parent="1">
          <mxGeometry x="-670.76" y="-1710" width="190" height="120" as="geometry" />
        </mxCell>
        <mxCell id="IUQ1ileT8ZM5fcZU5scy-80" style="edgeStyle=orthogonalEdgeStyle;rounded=0;orthogonalLoop=1;jettySize=auto;html=1;exitX=0;exitY=0.5;exitDx=0;exitDy=0;entryX=0;entryY=0.5;entryDx=0;entryDy=0;" edge="1" parent="1" source="IUQ1ileT8ZM5fcZU5scy-76" target="IUQ1ileT8ZM5fcZU5scy-77">
          <mxGeometry relative="1" as="geometry">
            <Array as="points">
              <mxPoint x="-871.98" y="-1240" />
              <mxPoint x="-871.98" y="-1190" />
            </Array>
          </mxGeometry>
        </mxCell>
        <mxCell id="IUQ1ileT8ZM5fcZU5scy-76" value="Image Wrapper" style="rounded=1;whiteSpace=wrap;html=1;glass=0;" vertex="1" parent="1">
          <mxGeometry x="-861.98" y="-1260" width="120" height="40" as="geometry" />
        </mxCell>
        <mxCell id="IUQ1ileT8ZM5fcZU5scy-83" style="edgeStyle=orthogonalEdgeStyle;rounded=0;orthogonalLoop=1;jettySize=auto;html=1;entryX=1.006;entryY=0.429;entryDx=0;entryDy=0;entryPerimeter=0;exitX=1;exitY=0.5;exitDx=0;exitDy=0;" edge="1" parent="1" source="IUQ1ileT8ZM5fcZU5scy-77" target="IUQ1ileT8ZM5fcZU5scy-76">
          <mxGeometry relative="1" as="geometry">
            <Array as="points">
              <mxPoint x="-731.98" y="-1190" />
              <mxPoint x="-731.98" y="-1243" />
            </Array>
          </mxGeometry>
        </mxCell>
        <mxCell id="IUQ1ileT8ZM5fcZU5scy-77" value="Content Wrapper" style="rounded=1;whiteSpace=wrap;html=1;glass=0;" vertex="1" parent="1">
          <mxGeometry x="-861.98" y="-1210" width="120" height="40" as="geometry" />
        </mxCell>
      </root>
    </mxGraphModel>
  </diagram>
</mxfile>
